<?xml version="1.0" encoding="utf-8"?>
<!-- Generator: Adobe Illustrator 16.0.0, SVG Export Plug-In . SVG Version: 6.00 Build 0)  -->
<!DOCTYPE svg PUBLIC "-//W3C//DTD SVG 1.1//EN" "http://www.w3.org/Graphics/SVG/1.1/DTD/svg11.dtd">
<svg version="1.1" xmlns="http://www.w3.org/2000/svg" xmlns:xlink="http://www.w3.org/1999/xlink" x="0px" y="0px" width="800px"
	 height="800px" viewBox="0 0 800 800" enable-background="new 0 0 800 800" xml:space="preserve">
<g id="Layer_1">
</g>
<g id="Icons">
	<path fill="#030404" d="M772.78,115.559c-51.272-38.521-112.341-58.88-176.6-58.88c-46.396,0-92.635,11.094-133.712,32.079
		c-22.512,11.502-43.564,26-62.469,42.915c-18.907-16.915-39.96-31.414-62.472-42.915c-41.077-20.985-87.315-32.079-133.712-32.079
		c-64.256,0-125.321,20.359-176.594,58.874c-12.333,9.265-19.59,23.79-19.59,39.215v490.465c0,18.584,10.504,35.572,27.127,43.876
		c6.936,3.464,14.444,5.17,21.913,5.17c10.436,0,20.802-3.325,29.462-9.831c34.15-25.651,74.844-39.212,117.682-39.212
		c62.28,0,119.493,28.612,156.97,78.499c9.264,12.33,23.791,19.587,39.214,19.587c15.426,0,29.95-7.257,39.215-19.587
		c37.474-49.887,94.686-78.499,156.966-78.499c42.84,0,83.534,13.561,117.682,39.216c8.66,6.502,19.029,9.83,29.465,9.83
		c7.472,0,14.974-1.703,21.91-5.17c16.626-8.304,27.13-25.292,27.13-43.876V154.771C792.367,139.348,785.111,124.82,772.78,115.559z
		 M203.816,596.189c-55.209,0-106.15,18.255-147.138,49.043V154.768c40.987-30.789,91.928-49.043,147.138-49.043
		c73.254,0,138.986,32.139,183.922,83.063v490.466C342.803,628.328,277.071,596.189,203.816,596.189z M743.321,645.235
		c-40.987-30.791-91.931-49.046-147.141-49.046c-73.255,0-138.986,32.139-183.919,83.062V188.786
		c44.933-50.923,110.664-83.062,183.919-83.062c55.21,0,106.153,18.254,147.141,49.046V645.235z"/>
</g>
</svg>
