<?xml version="1.0" encoding="utf-8"?>
<!-- Generator: Adobe Illustrator 16.0.0, SVG Export Plug-In . SVG Version: 6.00 Build 0)  -->
<!DOCTYPE svg PUBLIC "-//W3C//DTD SVG 1.1//EN" "http://www.w3.org/Graphics/SVG/1.1/DTD/svg11.dtd">
<svg version="1.1" xmlns="http://www.w3.org/2000/svg" xmlns:xlink="http://www.w3.org/1999/xlink" x="0px" y="0px" width="800px"
	 height="800px" viewBox="0 0 800 800" enable-background="new 0 0 800 800" xml:space="preserve">
<g id="Layer_1">
</g>
<g id="Icons">
	<path fill="#030404" d="M473.262,741.886H326.739c-13.488,0-24.42-10.935-24.42-24.421v-24.42H33.694
		c-13.488,0-24.42-10.935-24.42-24.42V204.637c0-13.487,10.933-24.42,24.42-24.42c13.486,0,24.42,10.933,24.42,24.42v439.567
		h268.625c13.486,0,24.42,10.935,24.42,24.421v24.42h97.682v-24.42c0-13.486,10.935-24.421,24.421-24.421h268.624V204.637
		c0-13.487,10.935-24.42,24.421-24.42c13.485,0,24.42,10.933,24.42,24.42v463.988c0,13.485-10.935,24.42-24.42,24.42H497.682v24.42
		C497.682,730.951,486.747,741.886,473.262,741.886L473.262,741.886z M717.465,155.796V387.79v207.573
		c0,10.508-6.722,19.836-16.688,23.162c-2.543,0.85-5.15,1.258-7.729,1.258c-7.533,0-14.824-3.493-19.528-9.754
		c-30.32-40.359-76.609-63.507-126.997-63.507s-96.677,23.147-126.997,63.507c-4.614,6.142-11.847,9.754-19.525,9.754
		c-7.679,0-14.911-3.612-19.525-9.754c-30.32-40.359-76.609-63.507-126.997-63.507S156.8,569.67,126.48,610.029
		c-4.704,6.261-11.995,9.754-19.528,9.754c-2.579,0-5.187-0.408-7.73-1.258c-9.965-3.326-16.688-12.654-16.688-23.162V387.79
		V155.796c0-5.291,1.717-10.438,4.895-14.668c18.935-25.203,43.74-46.085,71.738-60.391c28.966-14.801,61.579-22.623,94.31-22.623
		s65.344,7.822,94.31,22.623C366.979,90.544,384.672,103.44,400,118.7c15.328-15.26,33.021-28.156,52.212-37.963
		c28.967-14.801,61.579-22.623,94.311-22.623s65.344,7.822,94.311,22.623c27.997,14.306,52.802,35.188,71.737,60.391
		C715.748,145.358,717.465,150.505,717.465,155.796z M387.79,580.812V143.586c0-0.722,0.092-1.418,0.211-2.102
		c-33.46-36.228-81.322-58.949-134.524-58.949c-59.918,0-113.105,28.779-146.522,73.261V387.79v207.573
		c33.417-44.482,86.604-73.262,146.522-73.262C306.566,522.102,354.338,544.722,387.79,580.812z M693.045,155.796
		c-33.417-44.482-86.604-73.261-146.522-73.261c-53.202,0-101.065,22.721-134.524,58.949c0.12,0.684,0.212,1.38,0.212,2.102v437.227
		c33.45-36.091,81.224-58.711,134.312-58.711c59.918,0,113.105,28.779,146.522,73.262V387.79V155.796z"/>
</g>
</svg>
