<?xml version="1.0" encoding="utf-8"?>
<!-- Generator: Adobe Illustrator 16.0.0, SVG Export Plug-In . SVG Version: 6.00 Build 0)  -->
<!DOCTYPE svg PUBLIC "-//W3C//DTD SVG 1.1//EN" "http://www.w3.org/Graphics/SVG/1.1/DTD/svg11.dtd">
<svg version="1.1" xmlns="http://www.w3.org/2000/svg" xmlns:xlink="http://www.w3.org/1999/xlink" x="0px" y="0px" width="800px"
	 height="800px" viewBox="0 0 800 800" enable-background="new 0 0 800 800" xml:space="preserve">
<g id="Layer_1">
</g>
<g id="Icons">
	<path fill="#030404" d="M484.65,342.663l17.006-17.006c3.125-3.124,3.125-8.189,0-11.313s-8.189-3.124-11.312,0l-17.007,17.006
		c-17.766-15.404-40.427-25.303-65.337-27.062V288h8c4.418,0,8-3.582,8-8s-3.582-8-8-8h-32c-4.418,0-8,3.582-8,8s3.582,8,8,8h8
		v16.288C333.879,308.39,288,356.835,288,416c0,61.855,50.145,112,112,112c61.854,0,112-50.145,112-112
		C512,387.952,501.689,362.312,484.65,342.663z M400,512c-52.935,0-96-43.065-96-96s43.065-96,96-96c52.934,0,96,43.065,96,96
		S452.934,512,400,512z M408,402.165V344c0-4.418-3.582-8-8-8s-8,3.582-8,8v58.165c-4.774,2.771-8,7.929-8,13.835
		c0,8.822,7.178,16,16,16s16-7.178,16-16C416,410.094,412.774,404.937,408,402.165z M400,424c-4.418,0-8-3.582-8-8s3.582-8,8-8
		s8,3.582,8,8S404.418,424,400,424z"/>
</g>
</svg>
