<?xml version="1.0" encoding="utf-8"?>
<!-- Generator: Adobe Illustrator 16.0.0, SVG Export Plug-In . SVG Version: 6.00 Build 0)  -->
<!DOCTYPE svg PUBLIC "-//W3C//DTD SVG 1.1//EN" "http://www.w3.org/Graphics/SVG/1.1/DTD/svg11.dtd">
<svg version="1.1" xmlns="http://www.w3.org/2000/svg" xmlns:xlink="http://www.w3.org/1999/xlink" x="0px" y="0px" width="800px"
	 height="800px" viewBox="0 0 800 800" enable-background="new 0 0 800 800" xml:space="preserve">
<g id="Layer_1">
</g>
<g id="Icons">
	<path fill="#030404" d="M695.139,55.672c27.051,0,49.189,22.136,49.189,49.19v590.277c0,27.053-22.139,49.189-49.189,49.189
		H104.862c-27.057,0-49.19-22.137-49.19-49.189V104.862c0-27.054,22.133-49.19,49.19-49.19H695.139 M695.139,6.482H104.862
		c-54.251,0-98.379,44.134-98.379,98.379v590.277c0,54.245,44.128,98.379,98.379,98.379h590.277
		c54.245,0,98.379-44.134,98.379-98.379V104.862C793.518,50.616,749.384,6.482,695.139,6.482L695.139,6.482z M129.457,301.621
		c6.293,0,12.586-2.402,17.383-7.203l73.785-73.784c9.613-9.607,9.613-25.178,0-34.785l-73.785-73.787
		c-9.601-9.602-25.171-9.602-34.772,0c-9.607,9.607-9.607,25.177,0,34.788l56.389,56.392l-56.389,56.392
		c-9.607,9.607-9.607,25.177,0,34.785C116.865,299.219,123.158,301.621,129.457,301.621L129.457,301.621z M400,301.621
		c13.582,0,24.595-11.012,24.595-24.595S413.582,252.431,400,252.431H277.026c-13.583,0-24.595,11.013-24.595,24.595
		s11.013,24.595,24.595,24.595H400L400,301.621z"/>
</g>
</svg>
