<?xml version="1.0" encoding="utf-8"?>
<!-- Generator: Adobe Illustrator 16.0.0, SVG Export Plug-In . SVG Version: 6.00 Build 0)  -->
<!DOCTYPE svg PUBLIC "-//W3C//DTD SVG 1.1//EN" "http://www.w3.org/Graphics/SVG/1.1/DTD/svg11.dtd">
<svg version="1.1" xmlns="http://www.w3.org/2000/svg" xmlns:xlink="http://www.w3.org/1999/xlink" x="0px" y="0px" width="800px"
	 height="800px" viewBox="0 0 800 800" enable-background="new 0 0 800 800" xml:space="preserve">
<g id="Layer_1">
</g>
<g id="Icons">
	<path fill="#030404" d="M430.928,400.628l50.141-50.143c8.539-8.539,8.539-22.386,0-30.925c-8.542-8.542-22.387-8.542-30.928,0
		L400,369.701l-50.142-50.141c-8.541-8.542-22.386-8.542-30.928,0c-8.539,8.539-8.539,22.386,0,30.925l50.142,50.143l-50.142,50.142
		c-8.539,8.54-8.539,22.387,0,30.926c4.271,4.27,9.868,6.405,15.465,6.405s11.192-2.136,15.463-6.405L400,431.555l50.141,50.141
		c4.271,4.27,9.868,6.405,15.464,6.405c5.597,0,11.193-2.136,15.464-6.405c8.539-8.539,8.539-22.386,0-30.926L430.928,400.628z"/>
</g>
</svg>
