<?xml version="1.0" encoding="utf-8"?>
<!-- Generator: Adobe Illustrator 16.0.0, SVG Export Plug-In . SVG Version: 6.00 Build 0)  -->
<!DOCTYPE svg PUBLIC "-//W3C//DTD SVG 1.1//EN" "http://www.w3.org/Graphics/SVG/1.1/DTD/svg11.dtd">
<svg version="1.1" xmlns="http://www.w3.org/2000/svg" xmlns:xlink="http://www.w3.org/1999/xlink" x="0px" y="0px" width="800px"
	 height="800px" viewBox="0 0 800 800" enable-background="new 0 0 800 800" xml:space="preserve">
<g id="Layer_1">
</g>
<g id="Icons">
	<path fill="#030404" d="M683.477,166.194L534.464,17.182c-9.313-9.316-21.949-14.549-35.122-14.549H151.646
		c-27.432,0-49.671,22.239-49.671,49.671v695.393c0,27.431,22.239,49.671,49.671,49.671h496.709
		c27.431,0,49.671-22.24,49.671-49.671v-546.38C698.025,188.144,692.793,175.511,683.477,166.194z M499.342,52.304l149.013,149.013
		H499.342V52.304z M648.354,747.696H151.646V52.304h322.86v149.013c0,13.715,11.121,24.835,24.836,24.835h149.013V747.696z"/>
</g>
</svg>
