<?xml version="1.0" encoding="utf-8"?>
<!-- Generator: Adobe Illustrator 16.0.0, SVG Export Plug-In . SVG Version: 6.00 Build 0)  -->
<!DOCTYPE svg PUBLIC "-//W3C//DTD SVG 1.1//EN" "http://www.w3.org/Graphics/SVG/1.1/DTD/svg11.dtd">
<svg version="1.1" xmlns="http://www.w3.org/2000/svg" xmlns:xlink="http://www.w3.org/1999/xlink" x="0px" y="0px" width="800px"
	 height="800px" viewBox="0 0 800 800" enable-background="new 0 0 800 800" xml:space="preserve">
<g id="Layer_1">
</g>
<g id="Icons">
	<path fill="#030404" d="M645.23,743.322c0,27.085-21.961,49.046-49.047,49.046h-490.46c-27.087,0-49.046-21.961-49.046-49.046
		V154.77c0-27.087,21.959-49.046,49.046-49.046v637.599H645.23z M743.322,203.816V645.23c0,27.085-21.961,49.046-49.046,49.046
		h-490.46c-27.087,0-49.046-21.961-49.046-49.046V56.678c0-27.087,21.959-49.046,49.046-49.046h343.322
		c13.007,0,25.484,5.167,34.681,14.366l147.138,147.138C738.155,178.335,743.322,190.809,743.322,203.816z M547.138,203.816h147.139
		L547.138,56.678V203.816z M694.276,228.339H547.138c-13.542,0-24.522-10.98-24.522-24.523V56.678H203.816V645.23h490.46V228.339z"
		/>
</g>
</svg>
