<?xml version="1.0" encoding="utf-8"?>
<!-- Generator: Adobe Illustrator 16.0.0, SVG Export Plug-In . SVG Version: 6.00 Build 0)  -->
<!DOCTYPE svg PUBLIC "-//W3C//DTD SVG 1.1//EN" "http://www.w3.org/Graphics/SVG/1.1/DTD/svg11.dtd">
<svg version="1.1" id="Layer_1" xmlns="http://www.w3.org/2000/svg" xmlns:xlink="http://www.w3.org/1999/xlink" x="0px" y="0px"
	 width="800px" height="800px" viewBox="0 0 800 800" enable-background="new 0 0 800 800" xml:space="preserve">
<g>
	<rect x="182.825" y="229.215" transform="matrix(0.809 0.5878 -0.5878 0.809 179.9116 -80.6484)" width="62.465" height="14.619"/>
</g>
<g>
	
		<rect x="245.894" y="174.792" transform="matrix(0.309 0.9511 -0.9511 0.309 360.8286 -134.4008)" width="54.023" height="12.643"/>
</g>
<g>
	<polygon points="340.029,198.801 360.034,136.741 374.442,141.46 354.439,203.521 	"/>
</g>
<g>
	
		<rect x="396.376" y="213.215" transform="matrix(-0.809 0.5878 -0.5878 -0.809 894.9565 148.2918)" width="54.022" height="12.643"/>
</g>
<g>
	<rect x="426.535" y="289.092" width="65.051" height="12.644"/>
</g>
<g>
	
		<rect x="406.334" y="368.205" transform="matrix(-0.809 -0.5878 0.5878 -0.809 563.7859 932.2398)" width="54.023" height="12.644"/>
</g>
<g>
	<polygon points="365.611,385.755 384.861,449.455 370.995,454.3 351.745,390.599 	"/>
</g>
<g>
	<rect x="262.008" y="425.57" transform="matrix(0.309 -0.9511 0.9511 0.309 -211.0461 573.3051)" width="54.023" height="12.644"/>
</g>
<g>
	
		<rect x="193.009" y="381.911" transform="matrix(0.809 -0.5878 0.5878 0.809 -186.1783 203.4728)" width="54.023" height="12.644"/>
</g>
<g>
	<rect x="162.851" y="306.034" width="54.023" height="12.644"/>
</g>
</svg>
