<?xml version="1.0" encoding="utf-8"?>
<!-- Generator: Adobe Illustrator 16.0.0, SVG Export Plug-In . SVG Version: 6.00 Build 0)  -->
<!DOCTYPE svg PUBLIC "-//W3C//DTD SVG 1.1//EN" "http://www.w3.org/Graphics/SVG/1.1/DTD/svg11.dtd">
<svg version="1.1" xmlns="http://www.w3.org/2000/svg" xmlns:xlink="http://www.w3.org/1999/xlink" x="0px" y="0px" width="800px"
	 height="800px" viewBox="0 0 800 800" enable-background="new 0 0 800 800" xml:space="preserve">
<g id="Layer_1">
</g>
<g id="Icons">
	<path fill="#030404" d="M432,288.002L416,384h64L368,511.999L384,416h-64L432,288.002 M432.006,272
		c-4.51,0-8.934,1.906-12.047,5.465l-112,127.999c-4.135,4.725-5.123,11.431-2.529,17.147S313.722,432,320,432h45.112
		l-12.895,77.369c-1.176,7.055,2.474,14.033,8.938,17.092c2.191,1.037,4.526,1.539,6.838,1.539c4.51,0,8.934-1.906,12.047-5.465
		l112-127.999c4.134-4.725,5.123-11.431,2.529-17.147C491.976,371.672,486.278,368,480,368h-45.112l12.895-77.369
		c1.176-7.055-2.474-14.033-8.938-17.092C436.652,272.502,434.317,272,432.006,272L432.006,272z"/>
</g>
</svg>
